<svg width="219" height="237" viewBox="0 0 219 237" fill="none" xmlns="http://www.w3.org/2000/svg">
<circle cx="77" cy="95" r="142" fill="#CCD6E0"/>
<path d="M110.087 52.8423C105.541 52.8423 101.854 49.0533 101.854 44.3804C101.854 39.7074 98.1696 35.9202 93.623 35.9202C89.0764 35.9202 85.3916 32.1331 85.3916 27.4601C85.3916 22.7872 81.7051 19 77.1603 19C72.6154 19 68.9272 22.7872 68.9272 27.4601C68.9272 32.1331 65.2424 35.9202 60.6958 35.9202C56.1492 35.9202 52.4645 39.7074 52.4645 44.3804C52.4645 49.0533 48.7779 52.8423 44.2331 52.8423C39.6882 52.8423 36 56.6294 36 61.3024C36 65.9753 39.6865 69.7625 44.2331 69.7625C48.7797 69.7625 52.4645 73.5497 52.4645 78.2226C52.4645 82.8956 56.1492 86.6845 60.6958 86.6845C65.2424 86.6845 68.9272 90.4717 68.9272 95.1446C68.9272 99.8176 72.6137 103.605 77.1603 103.605C81.7069 103.605 85.3916 99.8176 85.3916 95.1446C85.3916 90.4717 89.0764 86.6845 93.623 86.6845C98.1696 86.6845 101.854 82.8956 101.854 78.2226C101.854 73.5497 105.541 69.7625 110.087 69.7625C114.634 69.7625 118.319 65.9753 118.319 61.3024C118.319 56.6294 114.632 52.8423 110.087 52.8423ZM93.623 69.7625C89.0764 69.7625 85.3916 73.5497 85.3916 78.2226C85.3916 82.8956 81.7051 86.6845 77.1603 86.6845C72.6154 86.6845 68.9272 82.8956 68.9272 78.2226C68.9272 73.5497 65.2424 69.7625 60.6958 69.7625C56.1492 69.7625 52.4645 65.9753 52.4645 61.3024C52.4645 56.6294 56.1492 52.8423 60.6958 52.8423C65.2424 52.8423 68.9272 49.0533 68.9272 44.3804C68.9272 39.7074 72.6137 35.9202 77.1603 35.9202C81.7069 35.9202 85.3916 39.7074 85.3916 44.3804C85.3916 49.0533 89.0764 52.8423 93.623 52.8423C98.1696 52.8423 101.854 56.6294 101.854 61.3024C101.854 65.9753 98.1696 69.7625 93.623 69.7625Z" fill="#4976A2"/>
<path d="M77.1605 69.7613C81.7064 69.7613 85.3917 65.9736 85.3917 61.3013C85.3917 56.629 81.7064 52.8413 77.1605 52.8413C72.6145 52.8413 68.9292 56.629 68.9292 61.3013C68.9292 65.9736 72.6145 69.7613 77.1605 69.7613Z" fill="#4976A2"/>
<path d="M77.1605 120.526C81.7064 120.526 85.3917 116.738 85.3917 112.066C85.3917 107.393 81.7064 103.606 77.1605 103.606C72.6145 103.606 68.9292 107.393 68.9292 112.066C68.9292 116.738 72.6145 120.526 77.1605 120.526Z" fill="#4976A2"/>
<path d="M110.087 154.37C105.541 154.37 101.854 150.581 101.854 145.908C101.854 141.235 98.1696 137.448 93.623 137.448C89.0764 137.448 85.3916 133.66 85.3916 128.987C85.3916 124.315 81.7051 120.527 77.1603 120.527C72.6154 120.527 68.9272 124.315 68.9272 128.987C68.9272 133.66 65.2424 137.448 60.6958 137.448C56.1492 137.448 52.4645 141.235 52.4645 145.908C52.4645 150.581 48.7779 154.37 44.2314 154.37C39.6848 154.37 36 158.157 36 162.83C36 167.503 39.6865 171.29 44.2314 171.29C48.7762 171.29 52.4645 167.503 52.4645 162.83C52.4645 158.157 56.1492 154.37 60.6958 154.37C65.2424 154.37 68.9272 158.157 68.9272 162.83C68.9272 167.503 72.6137 171.29 77.1603 171.29C81.7069 171.29 85.3916 167.503 85.3916 162.83C85.3916 158.157 89.0764 154.37 93.623 154.37C98.1696 154.37 101.854 158.157 101.854 162.83C101.854 167.503 105.541 171.29 110.087 171.29C114.634 171.29 118.319 167.503 118.319 162.83C118.319 158.157 114.632 154.37 110.087 154.37ZM77.1603 154.37C72.6137 154.37 68.9272 150.581 68.9272 145.908C68.9272 141.235 72.6137 137.448 77.1603 137.448C81.7069 137.448 85.3916 141.235 85.3916 145.908C85.3916 150.581 81.7051 154.37 77.1603 154.37Z" fill="#4976A2"/>
</svg>
