<svg width="219" height="237" viewBox="0 0 219 237" fill="none" xmlns="http://www.w3.org/2000/svg">
<circle cx="77" cy="95" r="142" fill="#CCD6E0"/>
<path d="M77.1599 103.147C81.706 103.147 85.3913 99.427 85.3913 94.8382C85.3913 90.2494 81.706 86.5295 77.1599 86.5295C72.6139 86.5295 68.9286 90.2494 68.9286 94.8382C68.9286 99.427 72.6139 103.147 77.1599 103.147Z" fill="#4976A2"/>
<path d="M77.1599 36.8807C81.706 36.8807 85.3913 33.1608 85.3913 28.572C85.3913 23.9832 81.706 20.2633 77.1599 20.2633C72.6139 20.2633 68.9286 23.9832 68.9286 28.572C68.9286 33.1608 72.6139 36.8807 77.1599 36.8807Z" fill="#4976A2"/>
<path d="M77.1599 169.569C81.706 169.569 85.3913 165.849 85.3913 161.26C85.3913 156.672 81.706 152.952 77.1599 152.952C72.6139 152.952 68.9286 156.672 68.9286 161.26C68.9286 165.849 72.6139 169.569 77.1599 169.569Z" fill="#4976A2"/>
<path d="M93.6238 119.711C98.1705 119.711 101.855 115.992 101.855 111.403C101.855 106.813 105.54 103.094 110.087 103.094C114.633 103.094 118.32 99.3726 118.32 94.7832C118.32 90.1938 114.633 86.4743 110.087 86.4743C105.54 86.4743 101.855 82.7548 101.855 78.1655C101.855 73.5761 98.1705 69.8566 93.6238 69.8566C89.0772 69.8566 85.3923 66.1354 85.3923 61.546C85.3923 56.9566 89.0772 53.2372 93.6238 53.2372C98.1705 53.2372 101.855 49.5177 101.855 44.9283C101.855 40.3389 105.54 36.6195 110.087 36.6195C114.633 36.6195 118.32 32.8982 118.32 28.3089C118.32 23.7195 114.633 20 110.087 20C105.54 20 101.855 23.7195 101.855 28.3089C101.855 32.8982 98.1705 36.6195 93.6238 36.6195C89.0772 36.6195 85.3923 40.3389 85.3923 44.9283C85.3923 49.5177 81.7058 53.2372 77.1591 53.2372C72.6125 53.2372 68.9277 49.5177 68.9277 44.9283C68.9277 40.3389 65.2428 36.6195 60.6962 36.6195C56.1495 36.6195 52.4647 32.8982 52.4647 28.3089C52.4647 23.7195 48.7781 20 44.2315 20C39.6848 20 36 23.7195 36 28.3089C36 32.8982 39.6848 36.6195 44.2315 36.6195C48.7781 36.6195 52.4647 40.3389 52.4647 44.9283C52.4647 49.5177 56.1495 53.2372 60.6962 53.2372C65.2428 53.2372 68.9277 56.9566 68.9277 61.546C68.9277 66.1354 65.2428 69.8566 60.6962 69.8566C56.1495 69.8566 52.4647 73.5761 52.4647 78.1655C52.4647 82.7548 48.7781 86.4743 44.2315 86.4743C39.6848 86.4743 36 90.1955 36 94.7832C36 99.3708 39.6848 103.094 44.2315 103.094C48.7781 103.094 52.4647 106.813 52.4647 111.403C52.4647 115.992 56.1495 119.711 60.6962 119.711C65.2428 119.711 68.9277 123.433 68.9277 128.02C68.9277 132.608 65.2428 136.331 60.6962 136.331C56.1495 136.331 52.4647 140.05 52.4647 144.64C52.4647 149.229 48.7781 152.949 44.2315 152.949C39.6848 152.949 36 156.67 36 161.257C36 165.845 39.6848 169.568 44.2315 169.568C48.7781 169.568 52.4647 165.847 52.4647 161.257C52.4647 156.668 56.1495 152.949 60.6962 152.949C65.2428 152.949 68.9277 149.229 68.9277 144.64C68.9277 140.05 72.6125 136.331 77.1591 136.331C81.7058 136.331 85.3923 140.05 85.3923 144.64C85.3923 149.229 89.0772 152.949 93.6238 152.949C98.1705 152.949 101.855 156.67 101.855 161.257C101.855 165.845 105.54 169.568 110.087 169.568C114.633 169.568 118.32 165.847 118.32 161.257C118.32 156.668 114.633 152.949 110.087 152.949C105.54 152.949 101.855 149.229 101.855 144.64C101.855 140.05 98.1705 136.331 93.6238 136.331C89.0772 136.331 85.3923 132.61 85.3923 128.02C85.3923 123.431 89.0772 119.711 93.6238 119.711ZM77.1591 119.711C72.6125 119.711 68.9277 115.992 68.9277 111.403C68.9277 106.813 65.2428 103.094 60.6962 103.094C56.1495 103.094 52.4647 99.3726 52.4647 94.7832C52.4647 90.1938 56.1495 86.4743 60.6962 86.4743C65.2428 86.4743 68.9277 82.7548 68.9277 78.1655C68.9277 73.5761 72.6125 69.8566 77.1591 69.8566C81.7058 69.8566 85.3923 73.5761 85.3923 78.1655C85.3923 82.7548 89.0772 86.4743 93.6238 86.4743C98.1705 86.4743 101.855 90.1955 101.855 94.7832C101.855 99.3708 98.1705 103.094 93.6238 103.094C89.0772 103.094 85.3923 106.813 85.3923 111.403C85.3923 115.992 81.7058 119.711 77.1591 119.711Z" fill="#4976A2"/>
</svg>
