<svg width="219" height="237" viewBox="0 0 219 237" fill="none" xmlns="http://www.w3.org/2000/svg">
<circle cx="77" cy="95" r="142" fill="#CCD6E0"/>
<path d="M44.2315 103.069C48.7776 103.069 52.463 99.395 52.463 94.8627C52.463 90.3304 48.7776 86.6562 44.2315 86.6562C39.6854 86.6562 36 90.3304 36 94.8627C36 99.395 39.6854 103.069 44.2315 103.069Z" fill="#4976A2"/>
<path d="M110.087 103.069C114.633 103.069 118.318 99.395 118.318 94.8627C118.318 90.3304 114.633 86.6562 110.087 86.6562C105.541 86.6562 101.855 90.3304 101.855 94.8627C101.855 99.395 105.541 103.069 110.087 103.069Z" fill="#4976A2"/>
<path d="M100.355 62.0365C100.355 65.7361 97.3458 68.743 93.6238 68.743C89.9018 68.743 86.8923 65.7361 86.8923 62.0365C86.8923 58.337 89.9018 55.3301 93.6238 55.3301C97.3458 55.3301 100.355 58.337 100.355 62.0365Z" fill="#4976A2" stroke="#CCD6E0" stroke-width="3"/>
<path d="M67.4276 62.0365C67.4276 65.7361 64.4181 68.743 60.6961 68.743C56.9741 68.743 53.9646 65.7361 53.9646 62.0365C53.9646 58.337 56.9741 55.3301 60.6961 55.3301C64.4181 55.3301 67.4276 58.337 67.4276 62.0365Z" fill="#4976A2" stroke="#CCD6E0" stroke-width="3"/>
<path d="M93.6256 86.6551C98.1705 86.6551 101.857 90.3305 101.857 94.8633C101.857 99.3962 98.1705 103.07 93.6256 103.07C98.1705 103.07 101.857 106.743 101.857 111.276C101.857 115.809 105.542 119.483 110.089 119.483C114.635 119.483 118.32 123.158 118.32 127.691C118.32 132.224 114.635 135.897 110.089 135.897C105.542 135.897 101.857 139.571 101.857 144.104C101.857 148.637 105.542 152.31 110.089 152.31C114.635 152.31 118.32 155.986 118.32 160.518C118.32 165.051 114.635 168.725 110.089 168.725C105.542 168.725 101.857 165.05 101.857 160.518C101.857 155.987 98.1705 152.31 93.6256 152.31C89.0806 152.31 85.3923 148.637 85.3923 144.104C85.3923 139.571 89.0789 135.897 93.6256 135.897C98.1722 135.897 101.857 132.222 101.857 127.691C101.857 123.16 98.1705 119.483 93.6256 119.483C89.0806 119.483 85.3923 115.809 85.3923 111.276C85.3923 115.809 81.7075 119.483 77.1609 119.483C72.6142 119.483 68.9294 115.809 68.9294 111.276C68.9294 115.809 65.2428 119.483 60.6962 119.483C56.1495 119.483 52.4647 123.158 52.4647 127.691C52.4647 132.224 56.1513 135.897 60.6962 135.897C65.2411 135.897 68.9294 139.571 68.9294 144.104C68.9294 148.637 65.2428 152.31 60.6962 152.31C56.1495 152.31 52.4647 155.986 52.4647 160.518C52.4647 165.051 48.7799 168.725 44.2332 168.725C39.6866 168.725 36 165.05 36 160.518C36 155.987 39.6848 152.31 44.2315 152.31C48.7781 152.31 52.463 148.637 52.463 144.104C52.463 139.571 48.7781 135.897 44.2315 135.897C39.6848 135.897 36 132.222 36 127.691C36 123.16 39.6848 119.483 44.2315 119.483C48.7781 119.483 52.463 115.809 52.463 111.276C52.463 106.743 56.1495 103.07 60.6944 103.07C56.1495 103.07 52.463 99.3944 52.463 94.8633C52.463 90.3322 56.1495 86.6551 60.6944 86.6551C56.1495 86.6551 52.463 82.9815 52.463 78.4487C52.463 73.9159 48.7781 70.2422 44.2315 70.2422C39.6848 70.2422 36 66.5669 36 62.034C36 57.5012 39.6848 53.8276 44.2315 53.8276C48.7781 53.8276 52.463 50.1539 52.463 45.6211C52.463 41.0883 48.7781 37.4146 44.2315 37.4146C39.6848 37.4146 36 33.7393 36 29.2065C36 24.6736 39.6866 21 44.2332 21C48.7799 21 52.4647 24.6754 52.4647 29.2065C52.4647 33.7376 56.1513 37.4146 60.6962 37.4146C65.2411 37.4146 68.9294 41.0883 68.9294 45.6211C68.9294 50.1539 65.2428 53.8276 60.6962 53.8276C56.1495 53.8276 52.4647 57.5029 52.4647 62.034C52.4647 66.5651 56.1513 70.2422 60.6962 70.2422C65.2411 70.2422 68.9294 73.9159 68.9294 78.4487C68.9294 73.9159 72.6142 70.2422 77.1609 70.2422C81.7075 70.2422 85.3923 73.9159 85.3923 78.4487C85.3923 73.9159 89.0789 70.2422 93.6256 70.2422C98.1722 70.2422 101.857 66.5669 101.857 62.034C101.857 57.5012 98.1705 53.8276 93.6256 53.8276C89.0806 53.8276 85.3923 50.1539 85.3923 45.6211C85.3923 41.0883 89.0789 37.4146 93.6256 37.4146C98.1722 37.4146 101.857 33.7393 101.857 29.2065C101.857 24.6736 105.542 21 110.089 21C114.635 21 118.32 24.6754 118.32 29.2065C118.32 33.7376 114.635 37.4146 110.089 37.4146C105.542 37.4146 101.857 41.0883 101.857 45.6211C101.857 50.1539 105.542 53.8276 110.089 53.8276C114.635 53.8276 118.32 57.5029 118.32 62.034C118.32 66.5651 114.635 70.2422 110.089 70.2422C105.542 70.2422 101.857 73.9159 101.857 78.4487C101.857 82.9815 98.1705 86.6551 93.6256 86.6551Z" fill="#4976A2"/>
</svg>
