<svg width="219" height="237" viewBox="0 0 219 237" fill="none" xmlns="http://www.w3.org/2000/svg">
<circle cx="77" cy="95" r="142" fill="#CCD6E0"/>
<path d="M110.089 22C105.542 22 101.855 25.6456 101.855 30.1439C101.855 34.6422 98.1705 38.2878 93.6238 38.2878C89.0772 38.2878 85.3923 34.6422 85.3923 30.1439C85.3923 25.6456 81.7058 22 77.1609 22C72.616 22 68.9277 25.6456 68.9277 30.1439C68.9277 34.6422 65.2428 38.2878 60.6962 38.2878C56.1495 38.2878 52.4647 41.9352 52.4647 46.4334C52.4647 50.9317 48.7781 54.5774 44.2332 54.5774C39.6883 54.5774 36 58.223 36 62.7213C36 67.2196 39.6866 70.8652 44.2332 70.8652C48.7799 70.8652 52.4647 74.5125 52.4647 79.0108C52.4647 83.5091 48.7781 87.1547 44.2332 87.1547C39.6883 87.1547 36 90.8004 36 95.2986C36 99.7969 39.6866 103.443 44.2332 103.443C48.7799 103.443 52.4647 107.09 52.4647 111.588C52.4647 116.086 56.1495 119.732 60.6962 119.732C65.2428 119.732 68.9277 123.378 68.9277 127.876C68.9277 132.374 65.2428 136.02 60.6962 136.02C56.1495 136.02 52.4647 139.667 52.4647 144.166C52.4647 148.664 48.7781 152.309 44.2332 152.309C39.6883 152.309 36 155.955 36 160.453C36 164.952 39.6866 168.597 44.2332 168.597C48.7799 168.597 52.4647 164.952 52.4647 160.453C52.4647 155.955 56.1495 152.309 60.6962 152.309C65.2428 152.309 68.9277 155.955 68.9277 160.453C68.9277 164.952 72.6142 168.597 77.1609 168.597C81.7075 168.597 85.3923 164.952 85.3923 160.453C85.3923 155.955 89.0772 152.309 93.6238 152.309C98.1705 152.309 101.855 148.662 101.855 144.166C101.855 139.669 98.1705 136.02 93.6238 136.02C89.0772 136.02 85.3923 132.374 85.3923 127.876C85.3923 123.378 89.0772 119.732 93.6238 119.732C98.1705 119.732 101.855 116.085 101.855 111.588C101.855 107.092 98.1705 103.443 93.6238 103.443C89.0772 103.443 85.3923 99.7969 85.3923 95.2986C85.3923 90.8004 81.7058 87.1547 77.1609 87.1547C72.616 87.1547 68.9277 83.5074 68.9277 79.0108C68.9277 74.5142 72.6142 70.8652 77.1609 70.8652C81.7075 70.8652 85.3923 67.2196 85.3923 62.7213C85.3923 58.223 89.0772 54.5774 93.6238 54.5774C98.1705 54.5774 101.855 50.93 101.855 46.4334C101.855 41.9369 105.542 38.2878 110.089 38.2878C114.635 38.2878 118.32 34.6422 118.32 30.1439C118.32 25.6456 114.633 22 110.089 22ZM60.6962 103.443C56.1495 103.443 52.4647 99.7969 52.4647 95.2986C52.4647 90.8004 56.1495 87.1547 60.6962 87.1547C65.2428 87.1547 68.9277 90.8004 68.9277 95.2986C68.9277 99.7969 65.2428 103.443 60.6962 103.443ZM77.1609 152.309C72.6142 152.309 68.9277 148.662 68.9277 144.166C68.9277 139.669 72.6142 136.02 77.1609 136.02C81.7075 136.02 85.3923 139.667 85.3923 144.166C85.3923 148.664 81.7058 152.309 77.1609 152.309ZM77.1609 103.443C81.7058 103.443 85.3923 107.09 85.3923 111.588C85.3923 116.086 81.7058 119.732 77.1609 119.732C72.616 119.732 68.9277 116.085 68.9277 111.588C68.9277 107.092 72.6142 103.443 77.1609 103.443ZM60.6962 70.8652C56.1495 70.8652 52.4647 67.2196 52.4647 62.7213C52.4647 58.223 56.1495 54.5774 60.6962 54.5774C65.2428 54.5774 68.9277 58.223 68.9277 62.7213C68.9277 67.2196 65.2428 70.8652 60.6962 70.8652ZM77.1609 54.5774C72.6142 54.5774 68.9277 50.93 68.9277 46.4334C68.9277 41.9369 72.6142 38.2878 77.1609 38.2878C81.7075 38.2878 85.3923 41.9352 85.3923 46.4334C85.3923 50.9317 81.7058 54.5774 77.1609 54.5774Z" fill="#4976A2"/>
</svg>
