<svg width="219" height="237" viewBox="0 0 219 237" fill="none" xmlns="http://www.w3.org/2000/svg">
<circle cx="77" cy="95" r="142" fill="#CCD6E0"/>
<path d="M68.9282 28.3145C68.9282 32.9071 65.2434 36.6308 60.6968 36.6308C56.1503 36.6308 52.4638 32.9071 52.4638 28.3145C52.4638 23.722 56.1503 20 60.6968 20C65.2434 20 68.9282 23.7238 68.9282 28.3145Z" fill="#4976A2"/>
<path d="M77.1589 36.6291C81.7049 36.6291 85.3902 32.9065 85.3902 28.3145C85.3902 23.7225 81.7049 20 77.1589 20C72.6128 20 68.9275 23.7225 68.9275 28.3145C68.9275 32.9065 72.6128 36.6291 77.1589 36.6291Z" fill="#4976A2"/>
<path d="M101.854 28.3145C101.854 32.9071 98.1692 36.6308 93.6226 36.6308C89.076 36.6308 85.3913 32.9071 85.3913 28.3145C85.3913 23.722 89.076 20 93.6226 20C98.1692 20 101.854 23.7238 101.854 28.3145Z" fill="#4976A2"/>
<path d="M93.6238 119.781C98.1705 119.781 101.855 116.059 101.855 111.467C101.855 106.874 105.54 103.152 110.087 103.152C114.633 103.152 118.32 99.4281 118.32 94.8355C118.32 90.2429 114.633 86.5208 110.087 86.5208C105.54 86.5208 101.855 82.7988 101.855 78.2062C101.855 73.6136 98.1705 69.8915 93.6238 69.8915C89.0772 69.8915 85.3923 66.1677 85.3923 61.5751C85.3923 56.9825 89.0772 53.2604 93.6238 53.2604C98.1705 53.2604 101.855 49.5383 101.855 44.9457C101.855 40.3532 105.54 36.6311 110.087 36.6311C114.633 36.6311 118.32 32.9073 118.32 28.3147C118.32 23.7221 114.633 20 110.087 20C105.54 20 101.855 23.7238 101.855 28.3147C101.855 32.9055 98.1705 36.6311 93.6238 36.6311C89.0772 36.6311 85.3923 40.3532 85.3923 44.9457C85.3923 49.5383 81.7058 53.2604 77.1591 53.2604C72.6125 53.2604 68.9277 49.5383 68.9277 44.9457C68.9277 40.3532 65.2428 36.6311 60.6962 36.6311C56.1495 36.6311 52.463 32.9073 52.463 28.3147C52.463 23.7221 48.7781 20 44.2315 20C39.6848 20 36 23.7238 36 28.3147C36 32.9055 39.6848 36.6311 44.2315 36.6311C48.7781 36.6311 52.463 40.3532 52.463 44.9457C52.463 49.5383 56.1495 53.2604 60.6962 53.2604C65.2428 53.2604 68.9277 56.9842 68.9277 61.5751C68.9277 66.1659 65.2428 69.8915 60.6962 69.8915C56.1495 69.8915 52.463 73.6136 52.463 78.2062C52.463 82.7988 48.7781 86.5208 44.2315 86.5208C39.6848 86.5208 36 90.2446 36 94.8355C36 99.4263 39.6848 103.152 44.2315 103.152C48.7781 103.152 52.463 106.874 52.463 111.467C52.463 116.059 56.1495 119.781 60.6962 119.781C65.2428 119.781 68.9277 123.505 68.9277 128.096C68.9277 132.687 65.2428 136.412 60.6962 136.412C56.1495 136.412 52.463 140.134 52.463 144.727C52.463 149.32 48.7781 153.042 44.2315 153.042C39.6848 153.042 36 156.765 36 161.356C36 165.947 39.6848 169.673 44.2315 169.673C48.7781 169.673 52.463 165.949 52.463 161.356C52.463 156.764 56.1495 153.042 60.6962 153.042C65.2428 153.042 68.9277 149.32 68.9277 144.727C68.9277 140.134 72.6125 136.412 77.1591 136.412C81.7058 136.412 85.3923 140.134 85.3923 144.727C85.3923 149.32 89.0772 153.042 93.6238 153.042C98.1705 153.042 101.855 156.765 101.855 161.356C101.855 165.947 105.54 169.673 110.087 169.673C114.633 169.673 118.32 165.949 118.32 161.356C118.32 156.764 114.633 153.042 110.087 153.042C105.54 153.042 101.855 149.32 101.855 144.727C101.855 140.134 98.1705 136.412 93.6238 136.412C89.0772 136.412 85.3923 132.688 85.3923 128.096C85.3923 123.503 89.0772 119.781 93.6238 119.781ZM77.1591 119.781C72.6125 119.781 68.9277 116.059 68.9277 111.467C68.9277 106.874 65.2428 103.152 60.6962 103.152C56.1495 103.152 52.463 99.4281 52.463 94.8355C52.463 90.2429 56.1495 86.5208 60.6962 86.5208C65.2428 86.5208 68.9277 82.7988 68.9277 78.2062C68.9277 73.6136 72.6125 69.8915 77.1591 69.8915C81.7058 69.8915 85.3923 73.6136 85.3923 78.2062C85.3923 82.7988 89.0772 86.5208 93.6238 86.5208C98.1705 86.5208 101.855 90.2446 101.855 94.8355C101.855 99.4263 98.1705 103.152 93.6238 103.152C89.0772 103.152 85.3923 106.874 85.3923 111.467C85.3923 116.059 81.7058 119.781 77.1591 119.781Z" fill="#4976A2"/>
<path d="M68.9281 94.834C68.9281 99.4265 65.2433 103.15 60.6967 103.15C56.1502 103.15 52.4637 99.4265 52.4637 94.834C52.4637 90.2414 56.1502 86.5194 60.6967 86.5194C65.2433 86.5194 68.9281 90.2432 68.9281 94.834Z" fill="#4976A2"/>
<path d="M77.1589 103.149C81.7049 103.149 85.3902 99.426 85.3902 94.8341C85.3902 90.2421 81.7049 86.5195 77.1589 86.5195C72.6128 86.5195 68.9275 90.2421 68.9275 94.8341C68.9275 99.426 72.6128 103.149 77.1589 103.149Z" fill="#4976A2"/>
<path d="M101.854 94.8341C101.854 99.4266 98.1692 103.15 93.6226 103.15C89.076 103.15 85.3913 99.4266 85.3913 94.8341C85.3913 90.2415 89.076 86.5195 93.6226 86.5195C98.1692 86.5195 101.854 90.2433 101.854 94.8341Z" fill="#4976A2"/>
<path d="M68.9282 161.356C68.9282 165.948 65.2434 169.672 60.6968 169.672C56.1503 169.672 52.4638 165.948 52.4638 161.356C52.4638 156.763 56.1503 153.041 60.6968 153.041C65.2434 153.041 68.9282 156.765 68.9282 161.356Z" fill="#4976A2"/>
<path d="M77.1589 169.67C81.7049 169.67 85.3902 165.948 85.3902 161.356C85.3902 156.764 81.7049 153.041 77.1589 153.041C72.6128 153.041 68.9275 156.764 68.9275 161.356C68.9275 165.948 72.6128 169.67 77.1589 169.67Z" fill="#4976A2"/>
<path d="M101.854 161.356C101.854 165.948 98.1692 169.672 93.6226 169.672C89.076 169.672 85.3913 165.948 85.3913 161.356C85.3913 156.763 89.076 153.041 93.6226 153.041C98.1692 153.041 101.854 156.765 101.854 161.356Z" fill="#4976A2"/>
</svg>
