<svg width="219" height="237" viewBox="0 0 219 237" fill="none" xmlns="http://www.w3.org/2000/svg">
<circle cx="77" cy="95" r="142" fill="#CCD6E0"/>
<path d="M77.1597 36.6178C81.7058 36.6178 85.3912 32.8978 85.3912 28.3089C85.3912 23.72 81.7058 20 77.1597 20C72.6136 20 68.9282 23.72 68.9282 28.3089C68.9282 32.8978 72.6136 36.6178 77.1597 36.6178Z" fill="#4976A2"/>
<path d="M118.32 128.022C118.32 132.611 114.635 136.331 110.088 136.331C105.542 136.331 101.857 140.052 101.857 144.642C101.857 149.231 98.1718 152.951 93.625 152.951C89.0783 152.951 85.3916 149.229 85.3916 144.642C85.3916 140.054 89.0783 136.331 93.625 136.331C98.1718 136.331 101.857 132.611 101.857 128.022C101.857 123.432 98.1718 119.713 93.625 119.713C89.0783 119.713 85.3916 115.992 85.3916 111.404C85.3916 106.816 81.7067 103.093 77.16 103.093C72.6133 103.093 68.9283 106.814 68.9283 111.404C68.9283 115.993 65.2434 119.713 60.6967 119.713C56.1499 119.713 52.4633 123.432 52.4633 128.022C52.4633 132.611 56.1499 136.331 60.6967 136.331C65.2434 136.331 68.9283 140.052 68.9283 144.642C68.9283 149.231 65.2434 152.951 60.6967 152.951C56.1499 152.951 52.4633 149.229 52.4633 144.642C52.4633 140.054 48.7784 136.331 44.2317 136.331C39.6849 136.331 36 132.611 36 128.022C36 123.432 39.6849 119.713 44.2317 119.713C48.7784 119.713 52.4633 115.992 52.4633 111.404C52.4633 106.816 56.1499 103.093 60.6967 103.093C65.2434 103.093 68.9283 99.3735 68.9283 94.784C68.9283 90.1946 65.2434 86.475 60.6967 86.475C56.1499 86.475 52.4633 82.7537 52.4633 78.166C52.4633 73.5782 48.7784 69.8552 44.2317 69.8552C39.6849 69.8552 36 66.1357 36 61.5462C36 56.9567 39.6849 53.2371 44.2317 53.2371C48.7784 53.2371 52.4633 49.5158 52.4633 44.9264C52.4633 40.3369 56.1499 36.6173 60.6967 36.6173C65.2434 36.6173 68.9283 40.3386 68.9283 44.9264C68.9283 49.5141 65.2434 53.2371 60.6967 53.2371C56.1499 53.2371 52.4633 56.9567 52.4633 61.5462C52.4633 66.1357 56.1499 69.8552 60.6967 69.8552C65.2434 69.8552 68.9283 73.5765 68.9283 78.166C68.9283 82.7555 72.6133 86.475 77.16 86.475C81.7067 86.475 85.3916 82.7537 85.3916 78.166C85.3916 73.5782 89.0783 69.8552 93.625 69.8552C98.1718 69.8552 101.857 66.1357 101.857 61.5462C101.857 56.9567 98.1718 53.2371 93.625 53.2371C89.0783 53.2371 85.3916 49.5158 85.3916 44.9264C85.3916 40.3369 89.0783 36.6173 93.625 36.6173C98.1718 36.6173 101.857 40.3386 101.857 44.9264C101.857 49.5141 105.542 53.2371 110.088 53.2371C114.635 53.2371 118.32 56.9567 118.32 61.5462C118.32 66.1357 114.635 69.8552 110.088 69.8552C105.542 69.8552 101.857 73.5765 101.857 78.166C101.857 82.7555 98.1718 86.475 93.625 86.475C89.0783 86.475 85.3916 90.1946 85.3916 94.784C85.3916 99.3735 89.0783 103.093 93.625 103.093C98.1718 103.093 101.857 106.814 101.857 111.404C101.857 115.993 105.542 119.713 110.088 119.713C114.635 119.713 118.32 123.432 118.32 128.022Z" fill="#4976A2"/>
<path d="M77.1597 169.572C81.7058 169.572 85.3912 165.852 85.3912 161.263C85.3912 156.674 81.7058 152.954 77.1597 152.954C72.6136 152.954 68.9282 156.674 68.9282 161.263C68.9282 165.852 72.6136 169.572 77.1597 169.572Z" fill="#4976A2"/>
</svg>
