<svg width="144" height="262" viewBox="0 0 144 262" fill="none" xmlns="http://www.w3.org/2000/svg">
<path d="M129.43 58.0641C121.487 58.0641 115.047 51.5633 115.047 43.5458C115.047 35.5283 108.61 29.0305 100.667 29.0305C92.7239 29.0305 86.2867 22.5328 86.2867 14.5153C86.2867 6.49778 79.8464 0 71.9066 0C63.9668 0 57.5234 6.49778 57.5234 14.5153C57.5234 22.5328 51.0862 29.0305 43.1433 29.0305C35.2005 29.0305 28.7632 35.5283 28.7632 43.5458C28.7632 51.5633 22.3229 58.0641 14.3831 58.0641C6.44333 58.0641 0 64.5619 0 72.5794C0 80.5969 6.4403 87.0946 14.3831 87.0946C22.326 87.0946 28.7632 93.5924 28.7632 101.61C28.7632 109.627 35.2005 116.128 43.1433 116.128C51.0862 116.128 57.5234 122.626 57.5234 130.643C57.5234 138.661 63.9637 145.159 71.9066 145.159C79.8494 145.159 86.2867 138.661 86.2867 130.643C86.2867 122.626 92.7239 116.128 100.667 116.128C108.61 116.128 115.047 109.627 115.047 101.61C115.047 93.5924 121.487 87.0946 129.43 87.0946C137.373 87.0946 143.81 80.5969 143.81 72.5794C143.81 64.5619 137.37 58.0641 129.43 58.0641ZM100.667 87.0946C92.7239 87.0946 86.2867 93.5924 86.2867 101.61C86.2867 109.627 79.8464 116.128 71.9066 116.128C63.9668 116.128 57.5234 109.627 57.5234 101.61C57.5234 93.5924 51.0862 87.0946 43.1433 87.0946C35.2005 87.0946 28.7632 80.5969 28.7632 72.5794C28.7632 64.5619 35.2005 58.0641 43.1433 58.0641C51.0862 58.0641 57.5234 51.5633 57.5234 43.5458C57.5234 35.5283 63.9637 29.0305 71.9066 29.0305C79.8494 29.0305 86.2867 35.5283 86.2867 43.5458C86.2867 51.5633 92.7239 58.0641 100.667 58.0641C108.61 58.0641 115.047 64.5619 115.047 72.5794C115.047 80.5969 108.61 87.0946 100.667 87.0946Z" fill="black"/>
<path d="M71.9069 87.0926C79.8487 87.0926 86.2868 80.594 86.2868 72.5775C86.2868 64.5611 79.8487 58.0625 71.9069 58.0625C63.9651 58.0625 57.527 64.5611 57.527 72.5775C57.527 80.594 63.9651 87.0926 71.9069 87.0926Z" fill="black"/>
<path d="M71.9069 174.19C79.8487 174.19 86.2868 167.692 86.2868 159.675C86.2868 151.659 79.8487 145.16 71.9069 145.16C63.9651 145.16 57.527 151.659 57.527 159.675C57.527 167.692 63.9651 174.19 71.9069 174.19Z" fill="black"/>
<path d="M129.43 232.257C121.487 232.257 115.047 225.757 115.047 217.739C115.047 209.722 108.61 203.224 100.667 203.224C92.7239 203.224 86.2867 196.726 86.2867 188.709C86.2867 180.691 79.8464 174.193 71.9066 174.193C63.9668 174.193 57.5234 180.691 57.5234 188.709C57.5234 196.726 51.0862 203.224 43.1433 203.224C35.2005 203.224 28.7632 209.722 28.7632 217.739C28.7632 225.757 22.3229 232.257 14.3801 232.257C6.43727 232.257 0 238.755 0 246.773C0 254.79 6.4403 261.288 14.3801 261.288C22.3199 261.288 28.7632 254.79 28.7632 246.773C28.7632 238.755 35.2005 232.257 43.1433 232.257C51.0862 232.257 57.5234 238.755 57.5234 246.773C57.5234 254.79 63.9637 261.288 71.9066 261.288C79.8494 261.288 86.2867 254.79 86.2867 246.773C86.2867 238.755 92.7239 232.257 100.667 232.257C108.61 232.257 115.047 238.755 115.047 246.773C115.047 254.79 121.487 261.288 129.43 261.288C137.373 261.288 143.81 254.79 143.81 246.773C143.81 238.755 137.37 232.257 129.43 232.257ZM71.9066 232.257C63.9637 232.257 57.5234 225.757 57.5234 217.739C57.5234 209.722 63.9637 203.224 71.9066 203.224C79.8494 203.224 86.2867 209.722 86.2867 217.739C86.2867 225.757 79.8464 232.257 71.9066 232.257Z" fill="black"/>
</svg>
