<svg width="144" height="262" viewBox="0 0 144 262" fill="none" xmlns="http://www.w3.org/2000/svg">
<path d="M71.905 145.255C79.8467 145.255 86.2848 138.756 86.2848 130.74C86.2848 122.723 79.8467 116.225 71.905 116.225C63.9632 116.225 57.5251 122.723 57.5251 130.74C57.5251 138.756 63.9632 145.255 71.905 145.255Z" fill="black"/>
<path d="M71.905 29.49C79.8467 29.49 86.2848 22.9914 86.2848 14.975C86.2848 6.95857 79.8467 0.459961 71.905 0.459961C63.9632 0.459961 57.5251 6.95857 57.5251 14.975C57.5251 22.9914 63.9632 29.49 71.905 29.49Z" fill="black"/>
<path d="M71.905 261.292C79.8467 261.292 86.2848 254.793 86.2848 246.777C86.2848 238.76 79.8467 232.262 71.905 232.262C63.9632 232.262 57.5251 238.76 57.5251 246.777C57.5251 254.793 63.9632 261.292 71.905 261.292Z" fill="black"/>
<path d="M100.667 174.192C108.61 174.192 115.047 167.695 115.047 159.677C115.047 151.66 121.484 145.162 129.427 145.162C137.37 145.162 143.81 138.661 143.81 130.644C143.81 122.626 137.37 116.128 129.427 116.128C121.484 116.128 115.047 109.63 115.047 101.613C115.047 93.5955 108.61 87.0977 100.667 87.0977C92.7239 87.0977 86.2867 80.5969 86.2867 72.5794C86.2867 64.5619 92.7239 58.0641 100.667 58.0641C108.61 58.0641 115.047 51.5663 115.047 43.5489C115.047 35.5314 121.484 29.0336 129.427 29.0336C137.37 29.0336 143.81 22.5328 143.81 14.5153C143.81 6.49778 137.37 0 129.427 0C121.484 0 115.047 6.49778 115.047 14.5153C115.047 22.5328 108.61 29.0336 100.667 29.0336C92.7239 29.0336 86.2867 35.5314 86.2867 43.5489C86.2867 51.5663 79.8464 58.0641 71.9035 58.0641C63.9607 58.0641 57.5234 51.5663 57.5234 43.5489C57.5234 35.5314 51.0862 29.0336 43.1433 29.0336C35.2005 29.0336 28.7632 22.5328 28.7632 14.5153C28.7632 6.49778 22.3229 0 14.3801 0C6.43727 0 0 6.49778 0 14.5153C0 22.5328 6.43727 29.0336 14.3801 29.0336C22.3229 29.0336 28.7632 35.5314 28.7632 43.5489C28.7632 51.5663 35.2005 58.0641 43.1433 58.0641C51.0862 58.0641 57.5234 64.5619 57.5234 72.5794C57.5234 80.5969 51.0862 87.0977 43.1433 87.0977C35.2005 87.0977 28.7632 93.5955 28.7632 101.613C28.7632 109.63 22.3229 116.128 14.3801 116.128C6.43727 116.128 0 122.629 0 130.644C0 138.658 6.43727 145.162 14.3801 145.162C22.3229 145.162 28.7632 151.66 28.7632 159.677C28.7632 167.695 35.2005 174.192 43.1433 174.192C51.0862 174.192 57.5234 180.693 57.5234 188.708C57.5234 196.722 51.0862 203.226 43.1433 203.226C35.2005 203.226 28.7632 209.724 28.7632 217.741C28.7632 225.759 22.3229 232.257 14.3801 232.257C6.43727 232.257 0 238.757 0 246.772C0 254.786 6.43727 261.29 14.3801 261.29C22.3229 261.29 28.7632 254.789 28.7632 246.772C28.7632 238.754 35.2005 232.257 43.1433 232.257C51.0862 232.257 57.5234 225.759 57.5234 217.741C57.5234 209.724 63.9607 203.226 71.9035 203.226C79.8464 203.226 86.2867 209.724 86.2867 217.741C86.2867 225.759 92.7239 232.257 100.667 232.257C108.61 232.257 115.047 238.757 115.047 246.772C115.047 254.786 121.484 261.29 129.427 261.29C137.37 261.29 143.81 254.789 143.81 246.772C143.81 238.754 137.37 232.257 129.427 232.257C121.484 232.257 115.047 225.759 115.047 217.741C115.047 209.724 108.61 203.226 100.667 203.226C92.7239 203.226 86.2867 196.725 86.2867 188.708C86.2867 180.69 92.7239 174.192 100.667 174.192ZM71.9035 174.192C63.9607 174.192 57.5234 167.695 57.5234 159.677C57.5234 151.66 51.0862 145.162 43.1433 145.162C35.2005 145.162 28.7632 138.661 28.7632 130.644C28.7632 122.626 35.2005 116.128 43.1433 116.128C51.0862 116.128 57.5234 109.63 57.5234 101.613C57.5234 93.5955 63.9607 87.0977 71.9035 87.0977C79.8464 87.0977 86.2867 93.5955 86.2867 101.613C86.2867 109.63 92.7239 116.128 100.667 116.128C108.61 116.128 115.047 122.629 115.047 130.644C115.047 138.658 108.61 145.162 100.667 145.162C92.7239 145.162 86.2867 151.66 86.2867 159.677C86.2867 167.695 79.8464 174.192 71.9035 174.192Z" fill="black"/>
</svg>
