<svg width="146" height="262" viewBox="0 0 146 262" fill="none" xmlns="http://www.w3.org/2000/svg">
<path d="M14.5991 145.557C22.6619 145.557 29.1982 139.04 29.1982 131.002C29.1982 122.964 22.6619 116.447 14.5991 116.447C6.53623 116.447 0 122.964 0 131.002C0 139.04 6.53623 145.557 14.5991 145.557Z" fill="black"/>
<path d="M131.398 145.557C139.461 145.557 145.997 139.04 145.997 131.002C145.997 122.964 139.461 116.447 131.398 116.447C123.335 116.447 116.799 122.964 116.799 131.002C116.799 139.04 123.335 145.557 131.398 145.557Z" fill="black"/>
<path d="M115.299 72.7793C115.299 79.9849 109.438 85.834 102.2 85.834C94.9609 85.834 89.1006 79.9849 89.1006 72.7793C89.1006 65.5737 94.9609 59.7246 102.2 59.7246C109.438 59.7246 115.299 65.5737 115.299 72.7793Z" fill="black" stroke="white" stroke-width="3"/>
<path d="M56.8993 72.7793C56.8993 79.9849 51.039 85.834 43.8003 85.834C36.5615 85.834 30.7012 79.9849 30.7012 72.7793C30.7012 65.5737 36.5615 59.7246 43.8003 59.7246C51.039 59.7246 56.8993 65.5737 56.8993 72.7793Z" fill="black" stroke="white" stroke-width="3"/>
<path d="M102.203 116.444C110.263 116.444 116.802 122.962 116.802 131.002C116.802 139.041 110.263 145.556 102.203 145.556C110.263 145.556 116.802 152.072 116.802 160.111C116.802 168.15 123.337 174.666 131.401 174.666C139.465 174.666 146 181.184 146 189.223C146 197.263 139.465 203.778 131.401 203.778C123.337 203.778 116.802 210.294 116.802 218.333C116.802 226.372 123.337 232.888 131.401 232.888C139.465 232.888 146 239.406 146 247.445C146 255.485 139.465 262 131.401 262C123.337 262 116.802 255.482 116.802 247.445C116.802 239.409 110.263 232.888 102.203 232.888C94.1421 232.888 87.6006 226.372 87.6006 218.333C87.6006 210.294 94.139 203.778 102.203 203.778C110.267 203.778 116.802 197.26 116.802 189.223C116.802 181.187 110.263 174.666 102.203 174.666C94.1421 174.666 87.6006 168.15 87.6006 160.111C87.6006 168.15 81.0653 174.666 73.0015 174.666C64.9378 174.666 58.4025 168.15 58.4025 160.111C58.4025 168.15 51.8641 174.666 43.8003 174.666C35.7365 174.666 29.2012 181.184 29.2012 189.223C29.2012 197.263 35.7396 203.778 43.8003 203.778C51.861 203.778 58.4025 210.294 58.4025 218.333C58.4025 226.372 51.8641 232.888 43.8003 232.888C35.7365 232.888 29.2012 239.406 29.2012 247.445C29.2012 255.485 22.6659 262 14.6022 262C6.53837 262 0 255.482 0 247.445C0 239.409 6.53529 232.888 14.5991 232.888C22.6629 232.888 29.1982 226.372 29.1982 218.333C29.1982 210.294 22.6629 203.778 14.5991 203.778C6.53529 203.778 0 197.26 0 189.223C0 181.187 6.53529 174.666 14.5991 174.666C22.6629 174.666 29.1982 168.15 29.1982 160.111C29.1982 152.072 35.7365 145.556 43.7972 145.556C35.7365 145.556 29.1982 139.038 29.1982 131.002C29.1982 122.965 35.7365 116.444 43.7972 116.444C35.7365 116.444 29.1982 109.928 29.1982 101.889C29.1982 93.8498 22.6629 87.3344 14.5991 87.3344C6.53529 87.3344 0 80.8159 0 72.7766C0 64.7373 6.53529 58.2219 14.5991 58.2219C22.6629 58.2219 29.1982 51.7065 29.1982 43.6672C29.1982 35.6279 22.6629 29.1125 14.5991 29.1125C6.53529 29.1125 0 22.594 0 14.5547C0 6.51543 6.53837 0 14.6022 0C22.6659 0 29.2012 6.5185 29.2012 14.5547C29.2012 22.5909 35.7396 29.1125 43.8003 29.1125C51.861 29.1125 58.4025 35.6279 58.4025 43.6672C58.4025 51.7065 51.8641 58.2219 43.8003 58.2219C35.7365 58.2219 29.2012 64.7404 29.2012 72.7766C29.2012 80.8128 35.7396 87.3344 43.8003 87.3344C51.861 87.3344 58.4025 93.8498 58.4025 101.889C58.4025 93.8498 64.9378 87.3344 73.0015 87.3344C81.0653 87.3344 87.6006 93.8498 87.6006 101.889C87.6006 93.8498 94.139 87.3344 102.203 87.3344C110.267 87.3344 116.802 80.8159 116.802 72.7766C116.802 64.7373 110.263 58.2219 102.203 58.2219C94.1421 58.2219 87.6006 51.7065 87.6006 43.6672C87.6006 35.6279 94.139 29.1125 102.203 29.1125C110.267 29.1125 116.802 22.594 116.802 14.5547C116.802 6.51543 123.337 0 131.401 0C139.465 0 146 6.5185 146 14.5547C146 22.5909 139.465 29.1125 131.401 29.1125C123.337 29.1125 116.802 35.6279 116.802 43.6672C116.802 51.7065 123.337 58.2219 131.401 58.2219C139.465 58.2219 146 64.7404 146 72.7766C146 80.8128 139.465 87.3344 131.401 87.3344C123.337 87.3344 116.802 93.8498 116.802 101.889C116.802 109.928 110.263 116.444 102.203 116.444Z" fill="black"/>
</svg>
