<svg width="146" height="260" viewBox="0 0 146 260" fill="none" xmlns="http://www.w3.org/2000/svg">
<path d="M131.401 0C123.337 0 116.799 6.46577 116.799 14.4438C116.799 22.4218 110.263 28.8875 102.2 28.8875C94.1359 28.8875 87.6006 22.4218 87.6006 14.4438C87.6006 6.46577 81.0622 0 73.0015 0C64.9408 0 58.3994 6.46577 58.3994 14.4438C58.3994 22.4218 51.8641 28.8875 43.8003 28.8875C35.7365 28.8875 29.2012 35.3563 29.2012 43.3343C29.2012 51.3123 22.6629 57.7781 14.6022 57.7781C6.54144 57.7781 0 64.2439 0 72.2219C0 80.1999 6.53837 86.6656 14.6022 86.6656C22.6659 86.6656 29.2012 93.1345 29.2012 101.112C29.2012 109.09 22.6629 115.556 14.6022 115.556C6.54144 115.556 0 122.022 0 130C0 137.978 6.53837 144.444 14.6022 144.444C22.6659 144.444 29.2012 150.913 29.2012 158.891C29.2012 166.869 35.7365 173.334 43.8003 173.334C51.8641 173.334 58.3994 179.8 58.3994 187.778C58.3994 195.756 51.8641 202.222 43.8003 202.222C35.7365 202.222 29.2012 208.691 29.2012 216.669C29.2012 224.647 22.6629 231.112 14.6022 231.112C6.54144 231.112 0 237.578 0 245.556C0 253.534 6.53837 260 14.6022 260C22.6659 260 29.2012 253.534 29.2012 245.556C29.2012 237.578 35.7365 231.112 43.8003 231.112C51.8641 231.112 58.3994 237.578 58.3994 245.556C58.3994 253.534 64.9378 260 73.0015 260C81.0653 260 87.6006 253.534 87.6006 245.556C87.6006 237.578 94.1359 231.112 102.2 231.112C110.263 231.112 116.799 224.644 116.799 216.669C116.799 208.694 110.263 202.222 102.2 202.222C94.1359 202.222 87.6006 195.756 87.6006 187.778C87.6006 179.8 94.1359 173.334 102.2 173.334C110.263 173.334 116.799 166.866 116.799 158.891C116.799 150.916 110.263 144.444 102.2 144.444C94.1359 144.444 87.6006 137.978 87.6006 130C87.6006 122.022 81.0622 115.556 73.0015 115.556C64.9408 115.556 58.3994 109.087 58.3994 101.112C58.3994 93.1375 64.9378 86.6656 73.0015 86.6656C81.0653 86.6656 87.6006 80.1999 87.6006 72.2219C87.6006 64.2439 94.1359 57.7781 102.2 57.7781C110.263 57.7781 116.799 51.3093 116.799 43.3343C116.799 35.3594 123.337 28.8875 131.401 28.8875C139.465 28.8875 146 22.4218 146 14.4438C146 6.46577 139.462 0 131.401 0ZM43.8003 144.444C35.7365 144.444 29.2012 137.978 29.2012 130C29.2012 122.022 35.7365 115.556 43.8003 115.556C51.8641 115.556 58.3994 122.022 58.3994 130C58.3994 137.978 51.8641 144.444 43.8003 144.444ZM73.0015 231.112C64.9378 231.112 58.3994 224.644 58.3994 216.669C58.3994 208.694 64.9378 202.222 73.0015 202.222C81.0653 202.222 87.6006 208.691 87.6006 216.669C87.6006 224.647 81.0622 231.112 73.0015 231.112ZM73.0015 144.444C81.0622 144.444 87.6006 150.913 87.6006 158.891C87.6006 166.869 81.0622 173.334 73.0015 173.334C64.9408 173.334 58.3994 166.866 58.3994 158.891C58.3994 150.916 64.9378 144.444 73.0015 144.444ZM43.8003 86.6656C35.7365 86.6656 29.2012 80.1999 29.2012 72.2219C29.2012 64.2439 35.7365 57.7781 43.8003 57.7781C51.8641 57.7781 58.3994 64.2439 58.3994 72.2219C58.3994 80.1999 51.8641 86.6656 43.8003 86.6656ZM73.0015 57.7781C64.9378 57.7781 58.3994 51.3093 58.3994 43.3343C58.3994 35.3594 64.9378 28.8875 73.0015 28.8875C81.0653 28.8875 87.6006 35.3563 87.6006 43.3343C87.6006 51.3123 81.0622 57.7781 73.0015 57.7781Z" fill="black"/>
</svg>
