<svg width="143" height="260" viewBox="0 0 143 260" fill="none" xmlns="http://www.w3.org/2000/svg">
<path d="M57.2003 14.4434C57.2003 22.4212 50.7994 28.8898 42.9014 28.8898C35.0035 28.8898 28.5996 22.4212 28.5996 14.4434C28.5996 6.46559 35.0035 0 42.9014 0C50.7994 0 57.2003 6.46863 57.2003 14.4434Z" fill="black"/>
<path d="M71.498 28.8867C79.3951 28.8867 85.7969 22.4202 85.7969 14.4434C85.7969 6.46652 79.3951 0 71.498 0C63.601 0 57.1991 6.46652 57.1991 14.4434C57.1991 22.4202 63.601 28.8867 71.498 28.8867Z" fill="black"/>
<path d="M114.396 14.4434C114.396 22.4212 107.996 28.8898 100.098 28.8898C92.1996 28.8898 85.7987 22.4212 85.7987 14.4434C85.7987 6.46559 92.1996 0 100.098 0C107.996 0 114.396 6.46863 114.396 14.4434Z" fill="black"/>
<path d="M100.1 173.332C107.998 173.332 114.399 166.867 114.399 158.889C114.399 150.911 120.8 144.445 128.698 144.445C136.596 144.445 143 137.976 143 129.998C143 122.021 136.596 115.555 128.698 115.555C120.8 115.555 114.399 109.089 114.399 101.111C114.399 93.1334 107.998 86.6677 100.1 86.6677C92.2016 86.6677 85.8006 80.1989 85.8006 72.221C85.8006 64.2431 92.2016 57.7774 100.1 57.7774C107.998 57.7774 114.399 51.3117 114.399 43.3338C114.399 35.3559 120.8 28.8902 128.698 28.8902C136.596 28.8902 143 22.4215 143 14.4436C143 6.46569 136.596 0 128.698 0C120.8 0 114.399 6.46874 114.399 14.4436C114.399 22.4185 107.998 28.8902 100.1 28.8902C92.2016 28.8902 85.8006 35.3559 85.8006 43.3338C85.8006 51.3117 79.3966 57.7774 71.4985 57.7774C63.6004 57.7774 57.1994 51.3117 57.1994 43.3338C57.1994 35.3559 50.7984 28.8902 42.9003 28.8902C35.0022 28.8902 28.5982 22.4215 28.5982 14.4436C28.5982 6.46569 22.1972 0 14.2991 0C6.40101 0 0 6.46874 0 14.4436C0 22.4185 6.40101 28.8902 14.2991 28.8902C22.1972 28.8902 28.5982 35.3559 28.5982 43.3338C28.5982 51.3117 35.0022 57.7774 42.9003 57.7774C50.7984 57.7774 57.1994 64.2462 57.1994 72.221C57.1994 80.1959 50.7984 86.6677 42.9003 86.6677C35.0022 86.6677 28.5982 93.1334 28.5982 101.111C28.5982 109.089 22.1972 115.555 14.2991 115.555C6.40101 115.555 0 122.024 0 129.998C0 137.973 6.40101 144.445 14.2991 144.445C22.1972 144.445 28.5982 150.911 28.5982 158.889C28.5982 166.867 35.0022 173.332 42.9003 173.332C50.7984 173.332 57.1994 179.801 57.1994 187.776C57.1994 195.751 50.7984 202.223 42.9003 202.223C35.0022 202.223 28.5982 208.688 28.5982 216.666C28.5982 224.644 22.1972 231.11 14.2991 231.11C6.40101 231.11 0 237.579 0 245.553C0 253.528 6.40101 260 14.2991 260C22.1972 260 28.5982 253.531 28.5982 245.553C28.5982 237.575 35.0022 231.11 42.9003 231.11C50.7984 231.11 57.1994 224.644 57.1994 216.666C57.1994 208.688 63.6004 202.223 71.4985 202.223C79.3966 202.223 85.8006 208.688 85.8006 216.666C85.8006 224.644 92.2016 231.11 100.1 231.11C107.998 231.11 114.399 237.579 114.399 245.553C114.399 253.528 120.8 260 128.698 260C136.596 260 143 253.531 143 245.553C143 237.575 136.596 231.11 128.698 231.11C120.8 231.11 114.399 224.644 114.399 216.666C114.399 208.688 107.998 202.223 100.1 202.223C92.2016 202.223 85.8006 195.754 85.8006 187.776C85.8006 179.798 92.2016 173.332 100.1 173.332ZM71.4985 173.332C63.6004 173.332 57.1994 166.867 57.1994 158.889C57.1994 150.911 50.7984 144.445 42.9003 144.445C35.0022 144.445 28.5982 137.976 28.5982 129.998C28.5982 122.021 35.0022 115.555 42.9003 115.555C50.7984 115.555 57.1994 109.089 57.1994 101.111C57.1994 93.1334 63.6004 86.6677 71.4985 86.6677C79.3966 86.6677 85.8006 93.1334 85.8006 101.111C85.8006 109.089 92.2016 115.555 100.1 115.555C107.998 115.555 114.399 122.024 114.399 129.998C114.399 137.973 107.998 144.445 100.1 144.445C92.2016 144.445 85.8006 150.911 85.8006 158.889C85.8006 166.867 79.3966 173.332 71.4985 173.332Z" fill="black"/>
<path d="M57.2002 129.996C57.2002 137.974 50.7992 144.442 42.9013 144.442C35.0033 144.442 28.5994 137.974 28.5994 129.996C28.5994 122.018 35.0033 115.552 42.9013 115.552C50.7992 115.552 57.2002 122.021 57.2002 129.996Z" fill="black"/>
<path d="M71.498 144.439C79.3951 144.439 85.7969 137.973 85.7969 129.996C85.7969 122.019 79.3951 115.553 71.498 115.553C63.601 115.553 57.1991 122.019 57.1991 129.996C57.1991 137.973 63.601 144.439 71.498 144.439Z" fill="black"/>
<path d="M114.396 129.996C114.396 137.974 107.996 144.442 100.098 144.442C92.1996 144.442 85.7987 137.974 85.7987 129.996C85.7987 122.018 92.1996 115.553 100.098 115.553C107.996 115.553 114.396 122.021 114.396 129.996Z" fill="black"/>
<path d="M57.2003 245.552C57.2003 253.53 50.7994 259.999 42.9014 259.999C35.0035 259.999 28.5996 253.53 28.5996 245.552C28.5996 237.575 35.0035 231.109 42.9014 231.109C50.7994 231.109 57.2003 237.578 57.2003 245.552Z" fill="black"/>
<path d="M71.498 259.996C79.3951 259.996 85.7969 253.529 85.7969 245.552C85.7969 237.576 79.3951 231.109 71.498 231.109C63.601 231.109 57.1991 237.576 57.1991 245.552C57.1991 253.529 63.601 259.996 71.498 259.996Z" fill="black"/>
<path d="M114.396 245.552C114.396 253.53 107.996 259.999 100.098 259.999C92.1996 259.999 85.7987 253.53 85.7987 245.552C85.7987 237.575 92.1996 231.109 100.098 231.109C107.996 231.109 114.396 237.578 114.396 245.552Z" fill="black"/>
</svg>
