<svg width="144" height="262" viewBox="0 0 144 262" fill="none" xmlns="http://www.w3.org/2000/svg">
<path d="M71.903 29.0301C79.8448 29.0301 86.2829 22.5315 86.2829 14.515C86.2829 6.4986 79.8448 0 71.903 0C63.9612 0 57.5231 6.4986 57.5231 14.515C57.5231 22.5315 63.9612 29.0301 71.903 29.0301Z" fill="black"/>
<path d="M143.807 188.706C143.807 196.724 137.37 203.222 129.427 203.222C121.484 203.222 115.047 209.723 115.047 217.74C115.047 225.757 108.61 232.255 100.667 232.255C92.7239 232.255 86.2836 225.754 86.2836 217.74C86.2836 209.726 92.7239 203.222 100.667 203.222C108.61 203.222 115.047 196.724 115.047 188.706C115.047 180.689 108.61 174.191 100.667 174.191C92.7239 174.191 86.2836 167.69 86.2836 159.676C86.2836 151.661 79.8464 145.158 71.9035 145.158C63.9607 145.158 57.5234 151.658 57.5234 159.676C57.5234 167.693 51.0862 174.191 43.1433 174.191C35.2005 174.191 28.7602 180.689 28.7602 188.706C28.7602 196.724 35.2005 203.222 43.1433 203.222C51.0862 203.222 57.5234 209.723 57.5234 217.74C57.5234 225.757 51.0862 232.255 43.1433 232.255C35.2005 232.255 28.7602 225.754 28.7602 217.74C28.7602 209.726 22.3229 203.222 14.3801 203.222C6.43727 203.222 0 196.724 0 188.706C0 180.689 6.43727 174.191 14.3801 174.191C22.3229 174.191 28.7602 167.69 28.7602 159.676C28.7602 151.661 35.2005 145.158 43.1433 145.158C51.0862 145.158 57.5234 138.66 57.5234 130.642C57.5234 122.625 51.0862 116.127 43.1433 116.127C35.2005 116.127 28.7602 109.626 28.7602 101.612C28.7602 93.5973 22.3229 87.0934 14.3801 87.0934C6.43727 87.0934 0 80.5956 0 72.5781C0 64.5606 6.43727 58.0629 14.3801 58.0629C22.3229 58.0629 28.7602 51.562 28.7602 43.5445C28.7602 35.5271 35.2005 29.0293 43.1433 29.0293C51.0862 29.0293 57.5234 35.5301 57.5234 43.5445C57.5234 51.559 51.0862 58.0629 43.1433 58.0629C35.2005 58.0629 28.7602 64.5606 28.7602 72.5781C28.7602 80.5956 35.2005 87.0934 43.1433 87.0934C51.0862 87.0934 57.5234 93.5942 57.5234 101.612C57.5234 109.629 63.9607 116.127 71.9035 116.127C79.8464 116.127 86.2836 109.626 86.2836 101.612C86.2836 93.5973 92.7239 87.0934 100.667 87.0934C108.61 87.0934 115.047 80.5956 115.047 72.5781C115.047 64.5606 108.61 58.0629 100.667 58.0629C92.7239 58.0629 86.2836 51.562 86.2836 43.5445C86.2836 35.5271 92.7239 29.0293 100.667 29.0293C108.61 29.0293 115.047 35.5301 115.047 43.5445C115.047 51.559 121.484 58.0629 129.427 58.0629C137.37 58.0629 143.807 64.5606 143.807 72.5781C143.807 80.5956 137.37 87.0934 129.427 87.0934C121.484 87.0934 115.047 93.5942 115.047 101.612C115.047 109.629 108.61 116.127 100.667 116.127C92.7239 116.127 86.2836 122.625 86.2836 130.642C86.2836 138.66 92.7239 145.158 100.667 145.158C108.61 145.158 115.047 151.658 115.047 159.676C115.047 167.693 121.484 174.191 129.427 174.191C137.37 174.191 143.807 180.689 143.807 188.706Z" fill="black"/>
<path d="M71.903 261.292C79.8448 261.292 86.2829 254.793 86.2829 246.777C86.2829 238.76 79.8448 232.262 71.903 232.262C63.9612 232.262 57.5231 238.76 57.5231 246.777C57.5231 254.793 63.9612 261.292 71.903 261.292Z" fill="black"/>
</svg>
